<svg width="79" height="37" viewBox="0 0 79 37" fill="none" xmlns="http://www.w3.org/2000/svg">
<path d="M8.24219 16.0078H11.8516C13.0078 16.0078 13.9609 15.8125 14.7109 15.4219C15.4609 15.0156 16.0156 14.4531 16.375 13.7344C16.75 13 16.9375 12.1484 16.9375 11.1797C16.9375 10.3047 16.7656 9.53125 16.4219 8.85938C16.0938 8.17188 15.5859 7.64062 14.8984 7.26562C14.2109 6.875 13.3438 6.67969 12.2969 6.67969C11.4688 6.67969 10.7031 6.84375 10 7.17188C9.29688 7.5 8.73438 7.96094 8.3125 8.55469C7.89062 9.14844 7.67969 9.86719 7.67969 10.7109H0.90625C0.90625 8.83594 1.40625 7.20312 2.40625 5.8125C3.42188 4.42188 4.78125 3.33594 6.48438 2.55469C8.1875 1.77344 10.0625 1.38281 12.1094 1.38281C14.4219 1.38281 16.4453 1.75781 18.1797 2.50781C19.9141 3.24219 21.2656 4.32813 22.2344 5.76562C23.2031 7.20312 23.6875 8.98437 23.6875 11.1094C23.6875 12.1875 23.4375 13.2344 22.9375 14.25C22.4375 15.25 21.7188 16.1562 20.7812 16.9688C19.8594 17.7656 18.7344 18.4062 17.4062 18.8906C16.0781 19.3594 14.5859 19.5938 12.9297 19.5938H8.24219V16.0078ZM8.24219 21.1406V17.6484H12.9297C14.7891 17.6484 16.4219 17.8594 17.8281 18.2812C19.2344 18.7031 20.4141 19.3125 21.3672 20.1094C22.3203 20.8906 23.0391 21.8203 23.5234 22.8984C24.0078 23.9609 24.25 25.1406 24.25 26.4375C24.25 28.0312 23.9453 29.4531 23.3359 30.7031C22.7266 31.9375 21.8672 32.9844 20.7578 33.8438C19.6641 34.7031 18.3828 35.3594 16.9141 35.8125C15.4453 36.25 13.8438 36.4688 12.1094 36.4688C10.6719 36.4688 9.25781 36.2734 7.86719 35.8828C6.49219 35.4766 5.24219 34.875 4.11719 34.0781C3.00781 33.2656 2.11719 32.25 1.44531 31.0312C0.789062 29.7969 0.460938 28.3359 0.460938 26.6484H7.23438C7.23438 27.5234 7.45312 28.3047 7.89062 28.9922C8.32812 29.6797 8.92969 30.2188 9.69531 30.6094C10.4766 31 11.3438 31.1953 12.2969 31.1953C13.375 31.1953 14.2969 31 15.0625 30.6094C15.8438 30.2031 16.4375 29.6406 16.8438 28.9219C17.2656 28.1875 17.4766 27.3359 17.4766 26.3672C17.4766 25.1172 17.25 24.1172 16.7969 23.3672C16.3438 22.6016 15.6953 22.0391 14.8516 21.6797C14.0078 21.3203 13.0078 21.1406 11.8516 21.1406H8.24219ZM51.8594 15.9375V21.8438C51.8594 24.4062 51.5859 26.6172 51.0391 28.4766C50.4922 30.3203 49.7031 31.8359 48.6719 33.0234C47.6562 34.1953 46.4453 35.0625 45.0391 35.625C43.6328 36.1875 42.0703 36.4688 40.3516 36.4688C38.9766 36.4688 37.6953 36.2969 36.5078 35.9531C35.3203 35.5938 34.25 35.0391 33.2969 34.2891C32.3594 33.5391 31.5469 32.5938 30.8594 31.4531C30.1875 30.2969 29.6719 28.9219 29.3125 27.3281C28.9531 25.7344 28.7734 23.9062 28.7734 21.8438V15.9375C28.7734 13.375 29.0469 11.1797 29.5938 9.35156C30.1562 7.50781 30.9453 6 31.9609 4.82812C32.9922 3.65625 34.2109 2.79687 35.6172 2.25C37.0234 1.6875 38.5859 1.40625 40.3047 1.40625C41.6797 1.40625 42.9531 1.58594 44.125 1.94531C45.3125 2.28906 46.3828 2.82813 47.3359 3.5625C48.2891 4.29687 49.1016 5.24219 49.7734 6.39844C50.4453 7.53906 50.9609 8.90625 51.3203 10.5C51.6797 12.0781 51.8594 13.8906 51.8594 15.9375ZM45.0859 22.7344V15.0234C45.0859 13.7891 45.0156 12.7109 44.875 11.7891C44.75 10.8672 44.5547 10.0859 44.2891 9.44531C44.0234 8.78906 43.6953 8.25781 43.3047 7.85156C42.9141 7.44531 42.4688 7.14844 41.9688 6.96094C41.4688 6.77344 40.9141 6.67969 40.3047 6.67969C39.5391 6.67969 38.8594 6.82812 38.2656 7.125C37.6875 7.42188 37.1953 7.89844 36.7891 8.55469C36.3828 9.19531 36.0703 10.0547 35.8516 11.1328C35.6484 12.1953 35.5469 13.4922 35.5469 15.0234V22.7344C35.5469 23.9688 35.6094 25.0547 35.7344 25.9922C35.875 26.9297 36.0781 27.7344 36.3438 28.4062C36.625 29.0625 36.9531 29.6016 37.3281 30.0234C37.7188 30.4297 38.1641 30.7266 38.6641 30.9141C39.1797 31.1016 39.7422 31.1953 40.3516 31.1953C41.1016 31.1953 41.7656 31.0469 42.3438 30.75C42.9375 30.4375 43.4375 29.9531 43.8438 29.2969C44.2656 28.625 44.5781 27.75 44.7812 26.6719C44.9844 25.5938 45.0859 24.2812 45.0859 22.7344ZM63.3203 0V36H56.5703V0H63.3203ZM62.3594 22.4297H60.5078C60.5234 20.6641 60.7578 19.0391 61.2109 17.5547C61.6641 16.0547 62.3125 14.7578 63.1562 13.6641C64 12.5547 65.0078 11.6953 66.1797 11.0859C67.3672 10.4766 68.6797 10.1719 70.1172 10.1719C71.3672 10.1719 72.5 10.3516 73.5156 10.7109C74.5469 11.0547 75.4297 11.6172 76.1641 12.3984C76.9141 13.1641 77.4922 14.1719 77.8984 15.4219C78.3047 16.6719 78.5078 18.1875 78.5078 19.9688V36H71.7109V19.9219C71.7109 18.7969 71.5469 17.9141 71.2188 17.2734C70.9062 16.6172 70.4453 16.1562 69.8359 15.8906C69.2422 15.6094 68.5078 15.4688 67.6328 15.4688C66.6641 15.4688 65.8359 15.6484 65.1484 16.0078C64.4766 16.3672 63.9375 16.8672 63.5312 17.5078C63.125 18.1328 62.8281 18.8672 62.6406 19.7109C62.4531 20.5547 62.3594 21.4609 62.3594 22.4297Z" fill="#6B7280"/>
</svg>
