<svg width="200" height="200" viewBox="0 0 200 200" fill="none" xmlns="http://www.w3.org/2000/svg">
<path d="M156.189 181.745L99.9996 196.875L43.8097 181.745L30.8435 41.2729H169.157L156.189 181.745Z" fill="#2062AF"/>
<path d="M99.999 52.6511V184.808L100.126 184.843L145.597 172.598L156.093 52.6511H99.999Z" fill="#3C9CD7"/>
<path d="M68.1099 20.6347V12.2738H80.3085V3.125H58.9611V28.9833H80.3085V20.6347H68.1099ZM102.252 12.2738H110.781V3.125H89.4313V12.2738C92.2876 15.1301 93.7772 16.4972 97.9081 20.6281C95.4932 20.6281 89.4313 20.6368 89.4313 20.6364V28.9833H110.781V20.6347L102.252 12.2738ZM132.511 12.2738H141.039V3.125H119.689V12.2738C122.545 15.1301 124.036 16.4972 128.167 20.6281C125.753 20.6281 119.689 20.6368 119.689 20.6364V28.9833H141.04V20.6347L132.511 12.2738Z" fill="black"/>
<path d="M99.9493 87.7749L59.7329 104.524L61.0666 121.107L99.9493 104.482L141.31 86.798L143.025 69.8345L99.9493 87.7749Z" fill="white"/>
<path d="M59.7325 104.524L61.0661 121.107L99.9488 104.482V87.7749L59.7325 104.524Z" fill="url(#paint0_linear_188_892)"/>
<path d="M143.025 69.8349L99.9493 87.7749V104.482L141.31 86.798L143.025 69.8349Z" fill="url(#paint1_linear_188_892)"/>
<path d="M59.7943 104.524L61.1284 121.107L120.789 121.297L119.454 143.407L99.8225 148.934L80.9507 144.169L79.8072 130.445H62.2719L64.5593 156.939L100.013 167.422L135.275 157.129L139.85 104.524H59.7943Z" fill="url(#paint2_linear_188_892)"/>
<path opacity="0.05" d="M99.9493 104.524H59.7329L61.0666 121.107L99.9493 121.231V104.524ZM99.9493 148.881L99.7587 148.934L80.8893 144.169L79.7458 130.446H62.2109L64.4979 156.94L99.9493 167.423V148.881Z" fill="black"/>
<path d="M56.1111 69.8349H143.025L141.31 86.7984H58.2075L56.1111 69.8349Z" fill="url(#paint3_linear_188_892)"/>
<path opacity="0.05" d="M99.9494 69.8349H56.1111L58.2075 86.7984H99.9494V69.8349Z" fill="black"/>
<defs>
<linearGradient id="paint0_linear_188_892" x1="79.8406" y1="121.107" x2="79.8406" y2="87.7753" gradientUnits="userSpaceOnUse">
<stop offset="0.387" stop-color="#D1D3D4" stop-opacity="0"/>
<stop offset="1" stop-color="#D1D3D4"/>
</linearGradient>
<linearGradient id="paint1_linear_188_892" x1="121.487" y1="104.482" x2="121.487" y2="69.8353" gradientUnits="userSpaceOnUse">
<stop offset="0.387" stop-color="#D1D3D4" stop-opacity="0"/>
<stop offset="1" stop-color="#D1D3D4"/>
</linearGradient>
<linearGradient id="paint2_linear_188_892" x1="59.7943" y1="135.973" x2="139.849" y2="135.973" gradientUnits="userSpaceOnUse">
<stop stop-color="#E8E7E5"/>
<stop offset="1" stop-color="white"/>
</linearGradient>
<linearGradient id="paint3_linear_188_892" x1="56.1111" y1="78.3167" x2="143.025" y2="78.3167" gradientUnits="userSpaceOnUse">
<stop stop-color="#E8E7E5"/>
<stop offset="1" stop-color="white"/>
</linearGradient>
</defs>
</svg>
