<svg width="400" height="400" viewBox="0 0 400 400" fill="none" xmlns="http://www.w3.org/2000/svg">
<path d="M349.41 206.615C349.458 246.706 333.961 285.255 306.176 314.159C304.5 315.912 302.78 317.624 301.015 319.293C298.325 321.852 295.545 324.311 292.674 326.671C265.82 348.794 232.297 361.226 197.511 361.961C196.352 361.987 195.188 362 194.021 362C166.278 362 131.385 347.183 99.7193 326.671C97.0995 324.974 94.5029 323.238 91.9297 321.462C90.727 320.64 89.53 319.806 88.3389 318.961C76.1259 310.337 64.5334 300.867 53.6467 290.62C46.5189 283.931 39.8348 276.784 33.6371 269.225C9.30615 239.215 3.93962 212.173 38.6274 206.615C42.7344 205.959 46.7202 205.258 50.5851 204.511C56.1835 203.435 61.5413 202.273 66.6585 201.025C73.5515 199.35 80.0275 197.534 86.0865 195.576C88.1246 194.92 90.1161 194.251 92.061 193.569C120.814 183.47 140.058 170.302 153.157 156.014C155.379 153.595 157.427 151.147 159.302 148.671C162.171 144.901 164.776 140.938 167.101 136.81C170.309 131.074 173.003 125.067 175.153 118.857L175.271 118.515C185.693 88.4522 182.522 60.5669 194.021 51.2339C243.172 11.3347 304.365 68.1549 333.087 135.161C334.535 138.537 335.896 141.934 337.172 145.351C337.745 146.877 338.297 148.407 338.83 149.939C340.229 153.932 341.499 157.935 342.639 161.948C343.076 163.479 343.493 165.008 343.89 166.536C344.314 168.185 344.721 169.829 345.097 171.474C347.892 183.514 349.41 195.388 349.41 206.615Z" fill="#F2F2F2"/>
<path d="M197.511 361.961C196.352 361.987 195.188 362 194.021 362C166.278 362 131.385 347.183 99.7193 326.671C97.0995 324.974 94.5029 323.238 91.9297 321.462L94.1866 307.73L162.508 298.659L196.798 324.878L197.511 361.961Z" fill="#2F2E41"/>
<path d="M200.8 116.744H191.064C190.763 116.744 190.473 116.864 190.26 117.077C190.047 117.291 189.927 117.58 189.927 117.881V127.621C189.927 127.77 189.957 127.918 190.014 128.055C190.071 128.193 190.155 128.318 190.261 128.423C190.366 128.528 190.492 128.612 190.629 128.669C190.767 128.725 190.915 128.754 191.064 128.754H200.8C201.101 128.754 201.389 128.635 201.603 128.422C201.816 128.21 201.936 127.922 201.937 127.621V117.881C201.936 117.58 201.816 117.291 201.603 117.078C201.39 116.865 201.101 116.745 200.8 116.744Z" fill="white"/>
<path d="M200.8 133.342H191.064C190.763 133.342 190.473 133.462 190.26 133.675C190.047 133.888 189.927 134.177 189.927 134.479V144.218C189.927 144.367 189.957 144.515 190.014 144.653C190.071 144.79 190.155 144.915 190.261 145.021C190.366 145.126 190.492 145.209 190.629 145.266C190.767 145.323 190.915 145.352 191.064 145.351H200.8C201.101 145.351 201.389 145.232 201.603 145.02C201.816 144.807 201.936 144.519 201.937 144.218V134.479C201.936 134.177 201.816 133.889 201.603 133.676C201.39 133.463 201.101 133.342 200.8 133.342Z" fill="#E6E6E6"/>
<path d="M200.8 149.939H191.064C190.763 149.939 190.473 150.059 190.26 150.272C190.047 150.485 189.927 150.775 189.927 151.076V160.811C189.927 160.961 189.956 161.109 190.013 161.247C190.07 161.385 190.154 161.51 190.259 161.616C190.365 161.722 190.49 161.806 190.629 161.863C190.767 161.92 190.915 161.949 191.064 161.949H200.8C201.101 161.948 201.391 161.829 201.604 161.615C201.817 161.402 201.937 161.113 201.937 160.811V151.076C201.936 150.775 201.816 150.486 201.603 150.273C201.39 150.06 201.101 149.94 200.8 149.939Z" fill="#E6E6E6"/>
<path d="M201.92 167.472C201.871 167.21 201.733 166.973 201.528 166.803C201.324 166.632 201.066 166.538 200.8 166.536H191.064C190.763 166.536 190.473 166.656 190.26 166.869C190.047 167.083 189.927 167.372 189.927 167.673V177.409C189.927 177.558 189.956 177.706 190.013 177.844C190.07 177.982 190.154 178.108 190.259 178.213C190.365 178.319 190.49 178.403 190.629 178.46C190.767 178.517 190.915 178.546 191.064 178.546H200.8C201.101 178.546 201.391 178.426 201.604 178.213C201.817 177.999 201.937 177.71 201.937 177.409V167.673C201.938 167.606 201.932 167.538 201.92 167.472Z" fill="#E6E6E6"/>
<path d="M201.242 183.221C201.102 183.163 200.952 183.133 200.8 183.134H191.064C190.915 183.133 190.767 183.163 190.629 183.22C190.49 183.277 190.365 183.36 190.259 183.466C190.154 183.572 190.07 183.697 190.013 183.835C189.956 183.973 189.927 184.121 189.927 184.271V194.006C189.926 194.156 189.955 194.304 190.012 194.442C190.069 194.58 190.153 194.706 190.259 194.812C190.364 194.917 190.49 195.001 190.628 195.058C190.766 195.115 190.915 195.144 191.064 195.143H200.8C201.102 195.143 201.391 195.023 201.604 194.81C201.817 194.597 201.937 194.308 201.937 194.006V184.271C201.937 184.047 201.87 183.828 201.747 183.642C201.623 183.455 201.448 183.309 201.242 183.221Z" fill="#E6E6E6"/>
<path d="M221.251 116.744H211.516C211.214 116.744 210.925 116.864 210.712 117.077C210.498 117.291 210.379 117.58 210.378 117.881V127.621C210.379 127.77 210.408 127.918 210.465 128.055C210.523 128.193 210.606 128.318 210.712 128.423C210.818 128.528 210.943 128.612 211.081 128.669C211.219 128.725 211.366 128.754 211.516 128.754H221.251C221.552 128.754 221.841 128.635 222.054 128.422C222.267 128.21 222.388 127.922 222.389 127.621V117.881C222.388 117.58 222.268 117.291 222.055 117.078C221.841 116.865 221.553 116.745 221.251 116.744Z" fill="#E6E6E6"/>
<path d="M221.251 133.342H211.516C211.214 133.342 210.925 133.462 210.712 133.675C210.498 133.888 210.379 134.177 210.378 134.479V144.218C210.379 144.367 210.408 144.515 210.465 144.653C210.523 144.79 210.606 144.915 210.712 145.021C210.818 145.126 210.943 145.209 211.081 145.266C211.219 145.323 211.366 145.352 211.516 145.351H221.251C221.552 145.351 221.841 145.232 222.054 145.02C222.267 144.807 222.388 144.519 222.389 144.218V134.479C222.388 134.177 222.268 133.889 222.055 133.676C221.841 133.463 221.553 133.342 221.251 133.342Z" fill="#0F8DDB"/>
<path d="M221.251 149.939H211.516C211.214 149.939 210.925 150.059 210.712 150.272C210.498 150.485 210.379 150.775 210.378 151.076V160.811C210.378 160.961 210.407 161.109 210.464 161.247C210.521 161.385 210.605 161.51 210.711 161.616C210.816 161.722 210.942 161.806 211.08 161.863C211.218 161.92 211.366 161.949 211.516 161.949H221.251C221.553 161.948 221.842 161.829 222.055 161.615C222.269 161.402 222.388 161.113 222.389 160.811V151.076C222.388 150.775 222.268 150.486 222.055 150.273C221.841 150.06 221.553 149.94 221.251 149.939Z" fill="#0F8DDB"/>
<path d="M221.251 166.536H211.516C211.277 166.536 211.045 166.612 210.852 166.751C210.659 166.891 210.514 167.088 210.44 167.315C210.399 167.43 210.378 167.551 210.378 167.673V177.409C210.378 177.558 210.407 177.706 210.464 177.844C210.521 177.982 210.605 178.108 210.711 178.213C210.816 178.319 210.942 178.403 211.08 178.46C211.218 178.517 211.366 178.546 211.516 178.546H221.251C221.553 178.546 221.842 178.426 222.055 178.213C222.269 177.999 222.388 177.71 222.389 177.409V167.673C222.388 167.372 222.268 167.083 222.055 166.87C221.841 166.657 221.553 166.537 221.251 166.536Z" fill="#0F8DDB"/>
<path d="M221.251 183.134H211.516C211.366 183.133 211.218 183.163 211.08 183.22C210.942 183.277 210.816 183.36 210.711 183.466C210.605 183.572 210.521 183.697 210.464 183.835C210.407 183.973 210.378 184.121 210.378 184.271V194.006C210.378 194.155 210.407 194.303 210.464 194.442C210.521 194.58 210.605 194.705 210.711 194.811C210.816 194.916 210.942 195 211.08 195.057C211.218 195.114 211.366 195.143 211.516 195.143H221.251C221.553 195.143 221.842 195.023 222.055 194.81C222.269 194.597 222.388 194.308 222.389 194.006V184.271C222.388 183.969 222.269 183.68 222.055 183.467C221.842 183.254 221.553 183.134 221.251 183.134Z" fill="#E6E6E6"/>
<path d="M241.703 116.744H231.967C231.665 116.744 231.376 116.864 231.163 117.077C230.95 117.291 230.83 117.58 230.83 117.881V127.621C230.83 127.77 230.86 127.918 230.917 128.055C230.974 128.193 231.058 128.318 231.164 128.423C231.269 128.528 231.394 128.612 231.532 128.669C231.67 128.725 231.818 128.754 231.967 128.754H241.703C242.004 128.754 242.292 128.635 242.506 128.422C242.719 128.21 242.839 127.922 242.84 127.621V117.881C242.839 117.58 242.719 117.291 242.506 117.078C242.293 116.865 242.004 116.745 241.703 116.744Z" fill="#0F8DDB"/>
<path d="M241.703 133.342H231.967C231.665 133.342 231.376 133.462 231.163 133.675C230.95 133.888 230.83 134.177 230.83 134.479V144.218C230.83 144.367 230.86 144.515 230.917 144.653C230.974 144.79 231.058 144.915 231.164 145.021C231.269 145.126 231.394 145.209 231.532 145.266C231.67 145.323 231.818 145.352 231.967 145.351H241.703C242.004 145.351 242.292 145.232 242.506 145.02C242.719 144.807 242.839 144.519 242.84 144.218V134.479C242.839 134.177 242.719 133.889 242.506 133.676C242.293 133.463 242.004 133.342 241.703 133.342Z" fill="#0F8DDB"/>
<path d="M241.703 149.939H231.967C231.665 149.939 231.376 150.059 231.163 150.272C230.95 150.485 230.83 150.775 230.83 151.076V160.811C230.83 160.961 230.859 161.109 230.916 161.247C230.973 161.385 231.057 161.51 231.162 161.616C231.268 161.722 231.393 161.806 231.531 161.863C231.67 161.92 231.818 161.949 231.967 161.949H241.703C242.004 161.948 242.294 161.829 242.507 161.615C242.72 161.402 242.84 161.113 242.84 160.811V151.076C242.839 150.775 242.719 150.486 242.506 150.273C242.293 150.06 242.004 149.94 241.703 149.939Z" fill="#E6E6E6"/>
<path d="M241.703 166.536H231.967C231.665 166.536 231.376 166.656 231.163 166.869C230.95 167.083 230.83 167.372 230.83 167.673V177.409C230.83 177.558 230.859 177.706 230.916 177.844C230.973 177.982 231.057 178.108 231.162 178.213C231.268 178.319 231.393 178.403 231.531 178.46C231.67 178.517 231.818 178.546 231.967 178.546H241.703C242.004 178.546 242.294 178.426 242.507 178.213C242.72 177.999 242.84 177.71 242.84 177.409V167.673C242.839 167.372 242.719 167.083 242.506 166.87C242.293 166.657 242.004 166.537 241.703 166.536Z" fill="#0F8DDB"/>
<path d="M241.703 183.134H231.967C231.818 183.133 231.67 183.163 231.531 183.22C231.393 183.277 231.268 183.36 231.162 183.466C231.057 183.572 230.973 183.697 230.916 183.835C230.859 183.973 230.83 184.121 230.83 184.271V194.006C230.83 194.155 230.859 194.303 230.916 194.442C230.973 194.58 231.057 194.705 231.162 194.811C231.268 194.916 231.393 195 231.531 195.057C231.67 195.114 231.818 195.143 231.967 195.143H241.703C242.004 195.143 242.294 195.023 242.507 194.81C242.72 194.597 242.84 194.308 242.84 194.006V184.271C242.84 183.969 242.72 183.68 242.507 183.467C242.294 183.254 242.004 183.134 241.703 183.134Z" fill="#0F8DDB"/>
<path d="M262.154 116.744H252.418C252.117 116.744 251.828 116.864 251.614 117.077C251.401 117.291 251.281 117.58 251.281 117.881V127.621C251.281 127.77 251.311 127.918 251.368 128.055C251.425 128.193 251.509 128.318 251.615 128.423C251.721 128.528 251.846 128.612 251.984 128.669C252.122 128.725 252.269 128.754 252.418 128.754H262.154C262.455 128.754 262.744 128.635 262.957 128.422C263.17 128.21 263.29 127.922 263.291 127.621V117.881C263.291 117.58 263.17 117.291 262.957 117.078C262.744 116.865 262.456 116.745 262.154 116.744Z" fill="#0F8DDB"/>
<path d="M262.154 133.342H252.418C252.117 133.342 251.828 133.462 251.614 133.675C251.401 133.888 251.281 134.177 251.281 134.479V144.218C251.281 144.367 251.311 144.515 251.368 144.653C251.425 144.79 251.509 144.915 251.615 145.021C251.721 145.126 251.846 145.209 251.984 145.266C252.122 145.323 252.269 145.352 252.418 145.351H262.154C262.455 145.351 262.744 145.232 262.957 145.02C263.17 144.807 263.29 144.519 263.291 144.218V134.479C263.291 134.177 263.17 133.889 262.957 133.676C262.744 133.463 262.456 133.342 262.154 133.342Z" fill="white"/>
<path d="M262.154 149.939H252.418C252.117 149.939 251.828 150.059 251.614 150.272C251.401 150.485 251.281 150.775 251.281 151.076V160.811C251.281 160.961 251.31 161.109 251.367 161.247C251.424 161.385 251.508 161.51 251.614 161.616C251.719 161.722 251.845 161.806 251.983 161.863C252.121 161.92 252.269 161.949 252.418 161.949H262.154C262.456 161.948 262.745 161.829 262.958 161.615C263.171 161.402 263.291 161.113 263.291 160.811V151.076C263.291 150.775 263.17 150.486 262.957 150.273C262.744 150.06 262.456 149.94 262.154 149.939Z" fill="white"/>
<path d="M262.154 166.536H252.418C252.117 166.536 251.828 166.656 251.614 166.869C251.401 167.083 251.281 167.372 251.281 167.673V177.409C251.281 177.558 251.31 177.706 251.367 177.844C251.424 177.982 251.508 178.108 251.614 178.213C251.719 178.319 251.845 178.403 251.983 178.46C252.121 178.517 252.269 178.546 252.418 178.546H262.154C262.456 178.546 262.745 178.426 262.958 178.213C263.171 177.999 263.291 177.71 263.291 177.409V167.673C263.291 167.372 263.17 167.083 262.957 166.87C262.744 166.657 262.456 166.537 262.154 166.536Z" fill="#E6E6E6"/>
<path d="M262.154 183.134H252.418C252.269 183.133 252.121 183.163 251.983 183.22C251.845 183.277 251.719 183.36 251.614 183.466C251.508 183.572 251.424 183.697 251.367 183.835C251.31 183.973 251.281 184.121 251.281 184.271V194.006C251.281 194.155 251.31 194.303 251.367 194.442C251.424 194.58 251.508 194.705 251.614 194.811C251.719 194.916 251.845 195 251.983 195.057C252.121 195.114 252.269 195.143 252.418 195.143H262.154C262.456 195.143 262.745 195.023 262.958 194.81C263.171 194.597 263.291 194.308 263.291 194.006V184.271C263.291 183.969 263.171 183.68 262.958 183.467C262.745 183.254 262.456 183.134 262.154 183.134Z" fill="#0F8DDB"/>
<path d="M282.606 116.744H272.865C272.564 116.745 272.276 116.866 272.064 117.079C271.852 117.292 271.732 117.581 271.733 117.881V127.621C271.733 127.921 271.852 128.21 272.064 128.422C272.277 128.634 272.565 128.754 272.865 128.754H282.606C282.906 128.754 283.195 128.635 283.408 128.422C283.621 128.21 283.742 127.922 283.743 127.621V117.881C283.742 117.58 283.622 117.291 283.409 117.078C283.196 116.865 282.907 116.745 282.606 116.744Z" fill="white"/>
<path d="M282.606 133.342H272.865C272.564 133.343 272.276 133.463 272.064 133.676C271.852 133.889 271.732 134.178 271.733 134.479V144.218C271.733 144.519 271.852 144.807 272.064 145.019C272.277 145.232 272.565 145.351 272.865 145.351H282.606C282.906 145.351 283.195 145.232 283.408 145.02C283.621 144.807 283.742 144.519 283.743 144.218V134.479C283.742 134.177 283.622 133.889 283.409 133.676C283.196 133.463 282.907 133.342 282.606 133.342Z" fill="white"/>
<path d="M282.606 149.939H272.865C272.564 149.94 272.276 150.06 272.064 150.273C271.852 150.487 271.732 150.775 271.733 151.076V160.811C271.732 160.961 271.761 161.108 271.818 161.246C271.875 161.384 271.958 161.509 272.063 161.615C272.168 161.72 272.293 161.804 272.431 161.862C272.569 161.919 272.716 161.948 272.865 161.949H282.606C282.907 161.948 283.196 161.829 283.41 161.615C283.623 161.402 283.743 161.113 283.743 160.811V151.076C283.742 150.775 283.622 150.486 283.409 150.273C283.196 150.06 282.907 149.94 282.606 149.939Z" fill="white"/>
<path d="M282.606 166.536H272.865C272.564 166.537 272.276 166.658 272.064 166.871C271.852 167.084 271.732 167.372 271.733 167.673V177.409C271.732 177.558 271.761 177.705 271.818 177.843C271.875 177.981 271.958 178.107 272.063 178.212C272.168 178.318 272.293 178.402 272.431 178.459C272.569 178.516 272.716 178.546 272.865 178.546H282.606C282.907 178.546 283.196 178.426 283.41 178.213C283.623 177.999 283.743 177.71 283.743 177.409V167.673C283.742 167.372 283.622 167.083 283.409 166.87C283.196 166.657 282.907 166.537 282.606 166.536Z" fill="#0F8DDB"/>
<path d="M282.606 183.134H272.865C272.716 183.134 272.569 183.163 272.431 183.221C272.293 183.278 272.168 183.362 272.063 183.467C271.958 183.573 271.875 183.698 271.818 183.836C271.761 183.974 271.732 184.122 271.733 184.271V194.006C271.732 194.155 271.761 194.303 271.818 194.441C271.875 194.579 271.958 194.704 272.063 194.81C272.168 194.915 272.293 194.999 272.431 195.056C272.569 195.113 272.716 195.143 272.865 195.143H282.606C282.907 195.143 283.196 195.023 283.41 194.81C283.623 194.597 283.743 194.308 283.743 194.006V184.271C283.743 183.969 283.623 183.68 283.41 183.467C283.196 183.254 282.907 183.134 282.606 183.134Z" fill="#E6E6E6"/>
<path d="M303.057 116.744H293.317C293.016 116.745 292.728 116.866 292.515 117.079C292.303 117.292 292.184 117.581 292.184 117.881V127.621C292.184 127.921 292.304 128.21 292.516 128.422C292.728 128.634 293.016 128.754 293.317 128.754H303.057C303.358 128.754 303.647 128.635 303.86 128.422C304.073 128.21 304.193 127.922 304.194 127.621V117.881C304.193 117.58 304.073 117.291 303.86 117.078C303.647 116.865 303.358 116.745 303.057 116.744Z" fill="white"/>
<path d="M303.057 133.342H293.317C293.016 133.343 292.728 133.463 292.515 133.676C292.303 133.889 292.184 134.178 292.184 134.479V144.218C292.184 144.519 292.304 144.807 292.516 145.019C292.728 145.232 293.016 145.351 293.317 145.351H303.057C303.358 145.351 303.647 145.232 303.86 145.02C304.073 144.807 304.193 144.519 304.194 144.218V134.479C304.193 134.177 304.073 133.889 303.86 133.676C303.647 133.463 303.358 133.342 303.057 133.342Z" fill="white"/>
<path d="M303.057 149.939H293.317C293.016 149.94 292.728 150.06 292.515 150.273C292.303 150.487 292.184 150.775 292.184 151.076V160.811C292.184 160.961 292.213 161.108 292.269 161.246C292.326 161.384 292.409 161.509 292.515 161.615C292.62 161.72 292.745 161.804 292.883 161.862C293.02 161.919 293.168 161.948 293.317 161.949H303.057C303.359 161.948 303.648 161.829 303.861 161.615C304.074 161.402 304.194 161.113 304.194 160.811V151.076C304.193 150.775 304.073 150.486 303.86 150.273C303.647 150.06 303.358 149.94 303.057 149.939Z" fill="#0F8DDB"/>
<path d="M303.057 166.536H293.317C293.016 166.537 292.728 166.658 292.516 166.871C292.303 167.084 292.184 167.372 292.184 167.673V177.409C292.184 177.558 292.213 177.705 292.269 177.843C292.326 177.981 292.409 178.107 292.515 178.212C292.62 178.318 292.745 178.402 292.883 178.459C293.02 178.516 293.168 178.546 293.317 178.546H303.057C303.359 178.546 303.648 178.426 303.861 178.213C304.074 177.999 304.194 177.71 304.194 177.409V167.673C304.193 167.372 304.073 167.083 303.86 166.87C303.647 166.657 303.358 166.537 303.057 166.536Z" fill="#E6E6E6"/>
<path d="M303.057 183.134H293.317C293.168 183.134 293.02 183.163 292.883 183.221C292.745 183.278 292.62 183.362 292.515 183.467C292.409 183.573 292.326 183.698 292.269 183.836C292.213 183.974 292.184 184.122 292.184 184.271V194.006C292.184 194.155 292.213 194.303 292.269 194.441C292.326 194.579 292.409 194.704 292.515 194.81C292.62 194.915 292.745 194.999 292.883 195.056C293.02 195.113 293.168 195.143 293.317 195.143H303.057C303.359 195.143 303.648 195.023 303.861 194.81C304.074 194.597 304.194 194.308 304.194 194.006V184.271C304.194 183.969 304.074 183.68 303.861 183.467C303.648 183.254 303.359 183.134 303.057 183.134Z" fill="white"/>
<path d="M323.509 116.744H313.768C313.467 116.745 313.179 116.866 312.967 117.079C312.755 117.292 312.635 117.581 312.635 117.881V127.621C312.636 127.921 312.755 128.21 312.967 128.422C313.18 128.634 313.468 128.754 313.768 128.754H323.509C323.809 128.754 324.098 128.635 324.311 128.422C324.524 128.21 324.645 127.922 324.646 127.621V117.881C324.645 117.58 324.525 117.291 324.312 117.078C324.099 116.865 323.81 116.745 323.509 116.744Z" fill="#0F8DDB"/>
<path d="M323.509 133.342H313.768C313.467 133.343 313.179 133.463 312.967 133.676C312.755 133.889 312.635 134.178 312.635 134.479V144.218C312.636 144.519 312.755 144.807 312.967 145.019C313.18 145.232 313.468 145.351 313.768 145.351H323.509C323.809 145.351 324.098 145.232 324.311 145.02C324.524 144.807 324.645 144.519 324.646 144.218V134.479C324.645 134.177 324.525 133.889 324.312 133.676C324.099 133.463 323.81 133.342 323.509 133.342Z" fill="#0F8DDB"/>
<path d="M323.509 149.939H313.768C313.467 149.94 313.179 150.06 312.967 150.273C312.755 150.487 312.635 150.775 312.636 151.076V160.811C312.635 160.961 312.664 161.108 312.721 161.246C312.778 161.384 312.861 161.509 312.966 161.615C313.071 161.72 313.196 161.804 313.334 161.862C313.472 161.919 313.619 161.948 313.768 161.949H323.509C323.81 161.948 324.099 161.829 324.312 161.615C324.526 161.402 324.646 161.113 324.646 160.811V151.076C324.645 150.775 324.525 150.486 324.312 150.273C324.099 150.06 323.81 149.94 323.509 149.939Z" fill="#E6E6E6"/>
<path d="M323.509 166.536H313.768C313.467 166.537 313.179 166.658 312.967 166.871C312.755 167.084 312.635 167.372 312.636 167.673V177.409C312.635 177.558 312.664 177.705 312.721 177.843C312.778 177.981 312.861 178.107 312.966 178.212C313.071 178.318 313.196 178.402 313.334 178.459C313.472 178.516 313.619 178.546 313.768 178.546H323.509C323.81 178.546 324.099 178.426 324.312 178.213C324.526 177.999 324.646 177.71 324.646 177.409V167.673C324.645 167.372 324.525 167.083 324.312 166.87C324.099 166.657 323.81 166.537 323.509 166.536Z" fill="white"/>
<path d="M323.509 183.134H313.768C313.619 183.134 313.472 183.163 313.334 183.221C313.196 183.278 313.071 183.362 312.966 183.467C312.861 183.573 312.778 183.698 312.721 183.836C312.664 183.974 312.635 184.122 312.636 184.271V194.006C312.635 194.155 312.664 194.303 312.721 194.441C312.778 194.579 312.861 194.704 312.966 194.81C313.071 194.915 313.196 194.999 313.334 195.056C313.472 195.113 313.619 195.143 313.768 195.143H323.509C323.81 195.143 324.099 195.023 324.312 194.81C324.526 194.597 324.646 194.308 324.646 194.006V184.271C324.646 183.969 324.526 183.68 324.312 183.467C324.099 183.254 323.81 183.134 323.509 183.134Z" fill="#0F8DDB"/>
<path d="M343.96 116.744H334.22C333.919 116.745 333.631 116.866 333.418 117.079C333.206 117.292 333.087 117.581 333.087 117.881V127.621C333.087 127.921 333.206 128.21 333.419 128.422C333.631 128.634 333.919 128.754 334.22 128.754H343.96C344.261 128.754 344.55 128.635 344.763 128.422C344.976 128.21 345.096 127.922 345.097 127.621V117.881C345.096 117.58 344.976 117.291 344.763 117.078C344.55 116.865 344.261 116.745 343.96 116.744Z" fill="#0F8DDB"/>
<path d="M343.96 133.342H334.22C333.919 133.343 333.631 133.463 333.418 133.676C333.206 133.889 333.087 134.178 333.087 134.479V144.218C333.087 144.519 333.206 144.807 333.419 145.019C333.631 145.232 333.919 145.351 334.22 145.351H343.96C344.261 145.351 344.55 145.232 344.763 145.02C344.976 144.807 345.096 144.519 345.097 144.218V134.479C345.096 134.177 344.976 133.889 344.763 133.676C344.55 133.463 344.261 133.342 343.96 133.342Z" fill="#0F8DDB"/>
<path d="M343.96 149.939H334.22C333.919 149.94 333.631 150.06 333.418 150.273C333.206 150.487 333.087 150.775 333.087 151.076V160.811C333.087 160.961 333.116 161.108 333.172 161.246C333.229 161.384 333.312 161.509 333.418 161.615C333.523 161.72 333.648 161.804 333.786 161.862C333.923 161.919 334.071 161.948 334.22 161.949H343.96C344.262 161.948 344.551 161.829 344.764 161.615C344.977 161.402 345.097 161.113 345.097 160.811V151.076C345.096 150.775 344.976 150.486 344.763 150.273C344.55 150.06 344.261 149.94 343.96 149.939Z" fill="#E6E6E6"/>
<path d="M343.96 166.536H334.22C333.919 166.537 333.631 166.658 333.418 166.871C333.206 167.084 333.087 167.372 333.087 167.673V177.409C333.087 177.558 333.116 177.705 333.172 177.843C333.229 177.981 333.312 178.107 333.418 178.212C333.523 178.318 333.648 178.402 333.786 178.459C333.923 178.516 334.071 178.546 334.22 178.546H343.96C344.262 178.546 344.551 178.426 344.764 178.213C344.977 177.999 345.097 177.71 345.097 177.409V167.673C345.096 167.372 344.976 167.083 344.763 166.87C344.55 166.657 344.261 166.537 343.96 166.536Z" fill="#0F8DDB"/>
<path d="M343.96 183.134H334.22C334.071 183.134 333.923 183.163 333.786 183.221C333.648 183.278 333.523 183.362 333.418 183.467C333.312 183.573 333.229 183.698 333.172 183.836C333.116 183.974 333.087 184.122 333.087 184.271V194.006C333.087 194.155 333.116 194.303 333.172 194.441C333.229 194.579 333.312 194.704 333.418 194.81C333.523 194.915 333.648 194.999 333.785 195.056C333.923 195.113 334.071 195.143 334.22 195.143H343.96C344.262 195.143 344.551 195.023 344.764 194.81C344.977 194.597 345.097 194.308 345.097 194.006V184.271C345.097 183.969 344.977 183.68 344.764 183.467C344.551 183.254 344.262 183.134 343.96 183.134Z" fill="#0F8DDB"/>
<path d="M364.411 116.744H354.671C354.37 116.745 354.082 116.866 353.87 117.079C353.657 117.292 353.538 117.581 353.538 117.881V127.621C353.538 127.921 353.658 128.21 353.87 128.422C354.083 128.634 354.371 128.754 354.671 128.754H364.411C364.712 128.754 365.001 128.635 365.214 128.422C365.427 128.21 365.547 127.922 365.548 127.621V117.881C365.548 117.58 365.428 117.291 365.214 117.078C365.001 116.865 364.713 116.745 364.411 116.744Z" fill="#E6E6E6"/>
<path d="M364.411 133.342H354.671C354.37 133.343 354.082 133.463 353.87 133.676C353.657 133.889 353.538 134.178 353.538 134.479V144.218C353.538 144.519 353.658 144.807 353.87 145.019C354.083 145.232 354.371 145.351 354.671 145.351H364.411C364.712 145.351 365.001 145.232 365.214 145.02C365.427 144.807 365.547 144.519 365.548 144.218V134.479C365.548 134.177 365.428 133.889 365.214 133.676C365.001 133.463 364.713 133.342 364.411 133.342Z" fill="#0F8DDB"/>
<path d="M364.411 149.939H354.671C354.37 149.94 354.082 150.06 353.87 150.273C353.657 150.487 353.538 150.775 353.538 151.076V160.811C353.538 160.961 353.567 161.108 353.624 161.246C353.68 161.384 353.764 161.509 353.869 161.615C353.974 161.72 354.099 161.804 354.237 161.862C354.374 161.919 354.522 161.948 354.671 161.949H364.411C364.713 161.948 365.002 161.829 365.215 161.615C365.428 161.402 365.548 161.113 365.549 160.811V151.076C365.548 150.775 365.428 150.486 365.214 150.273C365.001 150.06 364.713 149.94 364.411 149.939Z" fill="#0F8DDB"/>
<path d="M364.411 166.536H354.671C354.37 166.537 354.082 166.658 353.87 166.871C353.657 167.084 353.538 167.372 353.538 167.673V177.409C353.538 177.558 353.567 177.705 353.624 177.843C353.68 177.981 353.764 178.107 353.869 178.212C353.974 178.318 354.099 178.402 354.237 178.459C354.374 178.516 354.522 178.546 354.671 178.546H364.411C364.713 178.546 365.002 178.426 365.215 178.213C365.429 177.999 365.548 177.71 365.549 177.409V167.673C365.548 167.372 365.428 167.083 365.214 166.87C365.001 166.657 364.713 166.537 364.411 166.536Z" fill="#0F8DDB"/>
<path d="M364.411 183.134H354.671C354.522 183.134 354.374 183.163 354.237 183.221C354.099 183.278 353.974 183.362 353.869 183.467C353.764 183.573 353.68 183.698 353.624 183.836C353.567 183.974 353.538 184.122 353.538 184.271V194.006C353.538 194.155 353.567 194.303 353.624 194.441C353.68 194.579 353.764 194.704 353.869 194.81C353.974 194.915 354.099 194.999 354.237 195.056C354.374 195.113 354.522 195.143 354.671 195.143H364.411C364.713 195.143 365.002 195.023 365.215 194.81C365.429 194.597 365.548 194.308 365.549 194.006V184.271C365.548 183.969 365.429 183.68 365.215 183.467C365.002 183.254 364.713 183.134 364.411 183.134Z" fill="#E6E6E6"/>
<path d="M384.863 116.744H375.123C374.822 116.745 374.534 116.866 374.321 117.079C374.109 117.292 373.99 117.581 373.99 117.881V127.621C373.99 127.921 374.109 128.21 374.322 128.422C374.534 128.634 374.822 128.754 375.123 128.754H384.863C385.164 128.754 385.452 128.635 385.666 128.422C385.879 128.21 385.999 127.922 386 127.621V117.881C385.999 117.58 385.879 117.291 385.666 117.078C385.453 116.865 385.164 116.745 384.863 116.744Z" fill="#E6E6E6"/>
<path d="M384.863 133.342H375.123C374.822 133.343 374.534 133.463 374.321 133.676C374.109 133.889 373.99 134.178 373.99 134.479V144.218C373.99 144.519 374.109 144.807 374.322 145.019C374.534 145.232 374.822 145.351 375.123 145.351H384.863C385.164 145.351 385.452 145.232 385.666 145.02C385.879 144.807 385.999 144.519 386 144.218V134.479C385.999 134.177 385.879 133.889 385.666 133.676C385.453 133.463 385.164 133.342 384.863 133.342Z" fill="#E6E6E6"/>
<path d="M384.863 149.939H375.123C374.822 149.94 374.534 150.06 374.321 150.273C374.109 150.487 373.99 150.775 373.99 151.076V160.811C373.989 160.961 374.018 161.108 374.075 161.246C374.132 161.384 374.215 161.509 374.32 161.615C374.426 161.72 374.551 161.804 374.688 161.862C374.826 161.919 374.973 161.948 375.123 161.949H384.863C385.164 161.948 385.454 161.829 385.667 161.615C385.88 161.402 386 161.113 386 160.811V151.076C385.999 150.775 385.879 150.486 385.666 150.273C385.453 150.06 385.164 149.94 384.863 149.939Z" fill="#0F8DDB"/>
<path d="M384.863 166.536H375.123C374.822 166.537 374.534 166.658 374.321 166.871C374.109 167.084 373.99 167.372 373.99 167.673V177.409C373.989 177.558 374.018 177.705 374.075 177.843C374.132 177.981 374.215 178.107 374.32 178.212C374.426 178.318 374.551 178.402 374.688 178.459C374.826 178.516 374.973 178.546 375.123 178.546H384.863C385.164 178.546 385.454 178.426 385.667 178.213C385.88 177.999 386 177.71 386 177.409V167.673C385.999 167.372 385.879 167.083 385.666 166.87C385.453 166.657 385.164 166.537 384.863 166.536Z" fill="#E6E6E6"/>
<path d="M384.863 183.134H375.123C374.973 183.134 374.826 183.163 374.688 183.221C374.551 183.278 374.426 183.362 374.32 183.467C374.215 183.573 374.132 183.698 374.075 183.836C374.018 183.974 373.989 184.122 373.99 184.271V194.006C373.989 194.155 374.018 194.303 374.075 194.441C374.132 194.579 374.215 194.704 374.32 194.81C374.426 194.915 374.551 194.999 374.688 195.056C374.826 195.113 374.973 195.143 375.123 195.143H384.863C385.164 195.143 385.454 195.023 385.667 194.81C385.88 194.597 386 194.308 386 194.006V184.271C386 183.969 385.88 183.68 385.667 183.467C385.454 183.254 385.164 183.134 384.863 183.134Z" fill="#E6E6E6"/>
<path d="M160.998 326.672H160.727L160.959 326.641L160.998 326.672Z" fill="#2F2E41"/>
<path d="M137.695 145.174C154.198 145.174 167.577 131.796 167.577 115.294C167.577 98.7911 154.198 85.4132 137.695 85.4132C121.191 85.4132 107.813 98.7911 107.813 115.294C107.813 131.796 121.191 145.174 137.695 145.174Z" fill="#FFB6B6"/>
<path d="M163.863 93.3858C163.863 93.3858 171.679 78.4456 154.484 77.0874C154.484 77.0874 139.826 63.791 124.885 74.6566C124.885 74.6566 116.735 74.6566 112.279 83.8784C112.279 83.8784 105.869 81.4476 104.461 87.953C104.461 87.953 99.7704 101.535 104.461 113.759C109.151 125.983 110.709 127.341 110.709 127.341C110.709 127.341 103.002 101.713 121.761 100.355C140.52 98.9965 161.512 87.2739 163.075 102.214C164.639 117.154 166.991 120.835 166.991 120.835C166.991 120.835 181.84 99.4978 163.863 93.3858Z" fill="#2F2E41"/>
<path d="M214.993 188.933L214.896 189.44L213.816 195.143L206.35 234.592L205.908 236.914L204.981 241.826L203.713 248.526L200.901 263.374L200.096 267.629L199.794 269.225L199.689 269.785L198.854 274.189L198.6 275.519L196.562 290.62L194.782 303.78L200.739 309.737L197.187 313.288L194.856 326.64L194.86 326.671H99.7194C95.8705 324.178 92.077 321.608 88.339 318.961L89.1219 313.1C89.1219 313.1 91.8161 302.634 90.6832 301.384C89.5549 300.133 87.0793 297.898 87.0793 297.898L90.1978 290.62L90.6308 289.61L89.9048 274.552L89.8873 274.189L89.6468 269.225L89.6161 268.587L89.568 267.629L88.6451 248.526L88.6276 248.211L88.3478 242.42L88.0853 236.914L87.9716 234.592L86.8476 211.356L86.0866 195.576L85.4218 181.839L88.0941 180.934L116.676 171.22L128.516 155.83L153.157 156.014L165.22 156.105L185.348 174.771L189.927 176.958L189.962 176.976L193.247 178.546L201.574 182.521L210.378 186.729L214.896 188.885L214.993 188.933Z" fill="#CACACA"/>
<path d="M131.7 281.844C129.894 282.543 127.957 282.838 126.025 282.708C124.093 282.578 122.213 282.026 120.517 281.091C118.822 280.155 117.352 278.86 116.211 277.295C115.07 275.73 114.287 273.934 113.915 272.034L67.3094 265.422L83.5108 247.096L125.284 256.185C128.519 255.772 131.792 256.56 134.484 258.399C137.176 260.239 139.099 263.002 139.89 266.164C140.681 269.327 140.284 272.67 138.774 275.56C137.265 278.45 134.748 280.686 131.7 281.844V281.844Z" fill="#FFB6B6"/>
<path d="M110.92 248.526C110.057 247.431 108.835 246.677 107.47 246.396L88.3477 242.42L86.3839 242.014C85.2427 241.776 84.1646 241.299 83.2202 240.616C82.2758 239.932 81.4864 239.057 80.9037 238.047C80.2992 236.987 79.9335 235.808 79.8321 234.592C79.7409 233.486 79.8733 232.374 80.2213 231.321L86.8475 211.356L91.1468 198.401C91.6679 196.839 91.9754 195.213 92.061 193.569C92.3005 189.017 90.8922 184.532 88.094 180.934C85.6339 177.771 82.2219 175.484 78.3619 174.41C74.5019 173.336 70.3987 173.531 66.6585 174.968C66.5491 175.008 66.4354 175.051 66.3261 175.095C63.6438 176.166 61.2474 177.846 59.3262 180.003C57.405 182.159 56.0116 184.733 55.2562 187.52L50.5851 204.511L40.9499 239.538C39.9853 243.048 39.7905 246.724 40.3786 250.316C40.9668 253.908 42.324 257.33 44.3575 260.348C46.391 263.367 49.0528 265.91 52.1605 267.805C55.2683 269.699 58.7487 270.9 62.3635 271.325L89.9047 274.552L102.65 276.048C104.123 276.225 105.61 275.841 106.813 274.971C108.016 274.101 108.847 272.81 109.14 271.355C109.161 271.276 109.177 271.196 109.188 271.115L109.495 269.225L112.088 253.315L112.114 253.153C112.25 252.341 112.213 251.51 112.007 250.713C111.802 249.916 111.431 249.171 110.92 248.526Z" fill="#CACACA"/>
<path d="M161.386 282.354C163.272 282.792 165.232 282.811 167.126 282.409C169.021 282.008 170.804 281.196 172.351 280.031C173.898 278.866 175.17 277.376 176.079 275.666C176.988 273.956 177.51 272.068 177.61 270.134L222.818 257.016L204.194 241.158L164.119 256.046C160.859 256.094 157.73 257.336 155.324 259.536C152.919 261.737 151.404 264.743 151.067 267.986C150.73 271.229 151.594 274.482 153.496 277.131C155.398 279.779 158.206 281.637 161.386 282.354V282.354Z" fill="#FFB6B6"/>
<path d="M245.263 227.673L223.762 178.192C222.003 174.129 218.862 170.821 214.896 168.854C213.671 168.251 212.383 167.781 211.056 167.455C210.851 167.402 210.645 167.354 210.44 167.315C207.626 166.701 204.708 166.755 201.92 167.472C199.371 168.127 196.988 169.312 194.928 170.949C192.867 172.587 191.175 174.64 189.962 176.976C189.949 176.995 189.937 177.016 189.927 177.037C188.572 179.659 187.851 182.562 187.823 185.513C187.795 188.464 188.46 191.381 189.765 194.028L190.032 194.562L205.226 225.075C205.745 226.119 206.037 227.26 206.084 228.424C206.131 229.589 205.931 230.75 205.497 231.831C205.063 232.913 204.406 233.891 203.568 234.7C202.73 235.51 201.73 236.133 200.634 236.529L199.567 236.914L180.375 243.846C178.935 244.36 177.75 245.413 177.071 246.782C176.391 248.152 176.269 249.732 176.731 251.189L176.78 251.342L182.159 268.556C182.185 268.635 182.212 268.714 182.242 268.792C182.29 268.941 182.348 269.086 182.417 269.225C182.989 270.508 184 271.544 185.267 272.147C186.535 272.751 187.976 272.883 189.332 272.519L199.689 269.785L201.801 269.225L228.547 262.162C232.066 261.232 235.342 259.553 238.152 257.239C240.962 254.926 243.239 252.032 244.826 248.757C246.414 245.481 247.275 241.902 247.35 238.263C247.425 234.624 246.713 231.011 245.263 227.673L245.263 227.673Z" fill="#CACACA"/>
<path d="M33.637 269.225C39.8347 276.784 46.5188 283.931 53.6466 290.621H251.325C253.229 290.624 255.055 291.382 256.401 292.729C257.748 294.076 258.505 295.902 258.506 297.806L258.791 347.896C270.952 342.309 282.34 335.175 292.674 326.671C295.543 324.314 298.323 321.854 301.014 319.293C302.777 317.622 304.497 315.911 306.175 314.159C318.756 301.053 328.943 285.846 336.275 269.225H33.637Z" fill="#3F3D56"/>
<path d="M306.176 314.159C304.5 315.912 302.78 317.624 301.015 319.293H258.935V314.159H306.176Z" fill="white"/>
<path d="M214.599 149.939C214.391 149.555 214.083 149.235 213.709 149.012C213.334 148.788 212.905 148.671 212.469 148.671H69.0815C68.4387 148.672 67.8227 148.929 67.3685 149.384C66.9143 149.839 66.659 150.455 66.6585 151.098V236.914H214.896V151.098C214.899 150.692 214.796 150.293 214.599 149.939Z" fill="#3F3D56"/>
<path d="M66.5286 234.591V245.181C66.5286 245.62 66.6151 246.055 66.7831 246.46C66.9511 246.866 67.1974 247.234 67.5078 247.545C67.8183 247.855 68.1868 248.101 68.5924 248.269C68.998 248.437 69.4328 248.524 69.8718 248.524H124.585V269.423H123.859C123.802 269.423 123.745 269.434 123.692 269.456C123.64 269.478 123.592 269.51 123.551 269.55C123.511 269.591 123.479 269.639 123.457 269.691C123.435 269.744 123.424 269.8 123.424 269.857V271.311C123.424 271.368 123.435 271.425 123.457 271.477C123.479 271.53 123.511 271.578 123.551 271.618C123.592 271.659 123.64 271.69 123.692 271.712C123.745 271.734 123.802 271.745 123.859 271.745H157.824C157.881 271.745 157.938 271.734 157.99 271.712C158.043 271.69 158.091 271.659 158.131 271.618C158.171 271.578 158.203 271.53 158.225 271.477C158.247 271.425 158.258 271.368 158.258 271.311V269.857C158.258 269.8 158.247 269.744 158.225 269.691C158.203 269.639 158.171 269.591 158.131 269.55C158.091 269.51 158.043 269.478 157.99 269.456C157.938 269.434 157.881 269.423 157.824 269.423H157.097V248.524H211.811C212.25 248.524 212.685 248.437 213.09 248.269C213.496 248.101 213.864 247.855 214.175 247.545C214.485 247.234 214.731 246.866 214.899 246.46C215.067 246.055 215.154 245.62 215.154 245.181V234.591H66.5286Z" fill="#3F3D56"/>
<path d="M139.045 204.197C146.608 204.197 152.738 198.067 152.738 190.505C152.738 182.943 146.608 176.813 139.045 176.813C131.483 176.813 125.353 182.943 125.353 190.505C125.353 198.067 131.483 204.197 139.045 204.197Z" fill="#0F8DDB"/>
<path d="M173.932 113.661H171.745C171.745 97.1291 155.383 86.2961 138.877 86.2873C136.476 86.2803 134.081 86.5132 131.726 86.9827C129.076 87.5119 126.325 88.146 123.622 88.9726C112.963 92.2396 103.078 98.5549 103.078 113.661C103.076 116.595 103.449 119.516 104.189 122.355L102.072 122.906C101.287 119.887 100.89 116.78 100.891 113.661C100.891 100.462 106.311 91.3955 115.67 85.9899C120.591 83.1471 126.596 81.3147 133.476 80.4225C136.339 80.0416 139.233 79.9537 142.114 80.1601C161.095 81.5246 173.932 96.0795 173.932 113.661Z" fill="#0F8DDB"/>
<path d="M177.576 114.872L176.714 108.505C176.501 106.897 175.727 105.415 174.527 104.324C173.757 103.612 172.835 103.084 171.831 102.781C170.827 102.478 169.767 102.407 168.732 102.574L167.363 102.762C166.988 102.812 166.627 102.935 166.301 103.125C165.974 103.315 165.689 103.568 165.46 103.869C165.23 104.169 165.062 104.512 164.965 104.877C164.868 105.243 164.845 105.624 164.896 105.999L166.886 120.667C166.968 121.265 167.236 121.822 167.652 122.259C168.068 122.696 168.611 122.992 169.204 123.103C169.38 123.139 169.559 123.156 169.738 123.156C169.867 123.156 169.995 123.147 170.123 123.13L171.654 122.924C172.587 122.8 173.485 122.487 174.293 122.003C175.101 121.52 175.801 120.876 176.351 120.112C176.469 119.946 176.583 119.775 176.688 119.6C177.507 118.169 177.82 116.503 177.576 114.872Z" fill="#0F8DDB"/>
<path d="M166.48 103.029C166.078 103.224 165.729 103.512 165.46 103.869C165.23 104.169 165.062 104.512 164.965 104.877C164.868 105.243 164.845 105.624 164.896 105.999L166.886 120.667C166.968 121.265 167.236 121.822 167.652 122.259C168.068 122.696 168.611 122.992 169.204 123.103L166.48 103.029Z" fill="white"/>
<path d="M177.576 114.872L176.714 108.505C176.501 106.896 175.727 105.415 174.527 104.323L176.508 118.918C176.538 119.152 176.598 119.381 176.688 119.6C177.507 118.169 177.82 116.503 177.576 114.872Z" fill="#3F3D56"/>
<path d="M170.766 119.46C171.364 119.379 171.665 117.955 171.438 116.28C171.211 114.604 170.541 113.312 169.943 113.393C169.344 113.474 169.044 114.898 169.271 116.574C169.498 118.249 170.167 119.542 170.766 119.46Z" fill="#3F3D56"/>
<path d="M169.454 111.588C170.052 111.507 170.353 110.083 170.126 108.408C169.898 106.732 169.229 105.44 168.631 105.521C168.032 105.602 167.731 107.026 167.959 108.702C168.186 110.377 168.855 111.669 169.454 111.588Z" fill="#3F3D56"/>
<path d="M177.764 114.65C178.362 114.569 178.663 113.144 178.436 111.469C178.208 109.794 177.539 108.501 176.941 108.582C176.342 108.664 176.041 110.088 176.269 111.763C176.496 113.438 177.165 114.731 177.764 114.65Z" fill="#3F3D56"/>
<path d="M138.877 86.2873C136.476 86.2803 134.081 86.5132 131.726 86.9827C129.076 87.5119 126.325 88.146 123.622 88.9726C119.401 88.7671 116.296 87.6737 115.67 85.9899C120.591 83.1471 126.596 81.3147 133.476 80.4225C136.338 80.0416 139.233 79.9537 142.114 80.1601C142.419 80.3388 142.682 80.5801 142.887 80.8681C143.092 81.156 143.234 81.4841 143.303 81.8307C143.509 83.3527 141.772 84.9709 138.877 86.2873Z" fill="#3F3D56"/>
<path d="M110.955 128.837L107.588 114.837C107.467 114.332 107.201 113.874 106.821 113.52C106.441 113.166 105.965 112.932 105.453 112.847C105.308 112.825 105.162 112.813 105.016 112.812C104.809 112.813 104.604 112.838 104.403 112.887L103.1 113.202C101.422 113.608 99.9734 114.663 99.0723 116.135C98.1711 117.608 97.891 119.378 98.2934 121.056L99.8024 127.337C100.147 128.815 100.967 130.14 102.138 131.107C102.328 131.26 102.526 131.401 102.733 131.531C103.466 131.99 104.284 132.298 105.138 132.437C105.992 132.575 106.865 132.54 107.706 132.336L109.005 132.021C109.348 131.941 109.671 131.79 109.954 131.579C110.374 131.273 110.693 130.849 110.872 130.36C111.05 129.872 111.079 129.342 110.955 128.837Z" fill="#0F8DDB"/>
<path d="M103.895 126.232C104.482 126.091 104.638 124.644 104.242 123C103.846 121.356 103.05 120.138 102.463 120.279C101.875 120.42 101.72 121.868 102.116 123.511C102.511 125.155 103.308 126.373 103.895 126.232Z" fill="#3F3D56"/>
<path d="M99.5215 127.544C100.109 127.403 100.264 125.956 99.8683 124.312C99.4727 122.668 98.676 121.45 98.0889 121.591C97.5018 121.733 97.3465 123.18 97.7421 124.824C98.1377 126.467 98.9344 127.685 99.5215 127.544Z" fill="#3F3D56"/>
<path d="M111.17 128.784L107.802 114.785C107.671 114.238 107.381 113.743 106.97 113.36C106.558 112.977 106.043 112.724 105.488 112.633L110.085 131.754C110.539 131.422 110.884 130.962 111.077 130.434C111.27 129.905 111.302 129.331 111.17 128.784Z" fill="white"/>
<path d="M99.0545 118.284C98.9616 117.894 98.7872 117.529 98.5428 117.212C98.0694 118.438 97.9824 119.78 98.2935 121.057L99.8024 127.337C100.147 128.815 100.968 130.14 102.138 131.107L99.0545 118.284Z" fill="#3F3D56"/>
</svg>
