<svg width="30" height="30" viewBox="0 0 30 30" fill="none" xmlns="http://www.w3.org/2000/svg">
<g clip-path="url(#clip0_541_34)">
<path d="M14.9995 0.312256C6.71661 0.312256 0 7.05403 0 15.3727C0 22.0255 4.29726 27.6703 10.26 29.6614C11.0095 29.8003 11.2829 29.3353 11.2829 28.9356C11.2829 28.5785 11.2698 27.6316 11.2626 26.3745C7.08919 27.2856 6.20903 24.3558 6.20903 24.3558C5.52774 22.6158 4.54452 22.1537 4.54452 22.1537C3.18194 21.2189 4.6471 21.2368 4.6471 21.2368C6.15194 21.3427 6.94403 22.7895 6.94403 22.7895C8.28339 25.0908 10.456 24.4255 11.3105 24.0398C11.4455 23.0673 11.834 22.4029 12.2623 22.0269C8.93226 21.6461 5.43097 20.3552 5.43097 14.585C5.43097 12.9413 6.015 11.5966 6.97452 10.5427C6.81919 10.1619 6.30484 8.63145 7.12064 6.55855C7.12064 6.55855 8.38064 6.15403 11.2456 8.10209C12.4423 7.76822 13.7255 7.60129 15.0015 7.59451C16.2745 7.60129 17.5587 7.76774 18.7573 8.10209C21.6198 6.15403 22.8779 6.55855 22.8779 6.55855C23.6956 8.63145 23.1813 10.1619 23.0265 10.5427C23.9884 11.5966 24.569 12.9408 24.569 14.585C24.569 20.3697 21.0619 21.6423 17.7203 22.0158C18.2589 22.4808 18.7384 23.3992 18.7384 24.8048C18.7384 26.8187 18.7205 28.4416 18.7205 28.9356C18.7205 29.3392 18.991 29.8081 19.7516 29.6595C25.7066 27.6645 30 22.0235 30 15.3727C30 7.05403 23.2834 0.312256 14.9995 0.312256Z" fill="white"/>
<path d="M14.9995 0.312256C6.71661 0.312256 0 7.05403 0 15.3727C0 22.0255 4.29726 27.6703 10.26 29.6614C11.0095 29.8003 11.2829 29.3353 11.2829 28.9356C11.2829 28.5785 11.2698 27.6316 11.2626 26.3745C7.08919 27.2856 6.20903 24.3558 6.20903 24.3558C5.52774 22.6158 4.54452 22.1537 4.54452 22.1537C3.18194 21.2189 4.6471 21.2368 4.6471 21.2368C6.15194 21.3427 6.94403 22.7895 6.94403 22.7895C8.28339 25.0908 10.456 24.4255 11.3105 24.0398C11.4455 23.0673 11.834 22.4029 12.2623 22.0269C8.93226 21.6461 5.43097 20.3552 5.43097 14.585C5.43097 12.9413 6.015 11.5966 6.97452 10.5427C6.81919 10.1619 6.30484 8.63145 7.12064 6.55855C7.12064 6.55855 8.38064 6.15403 11.2456 8.10209C12.4423 7.76822 13.7255 7.60129 15.0015 7.59451C16.2745 7.60129 17.5587 7.76774 18.7573 8.10209C21.6198 6.15403 22.8779 6.55855 22.8779 6.55855C23.6956 8.63145 23.1813 10.1619 23.0265 10.5427C23.9884 11.5966 24.569 12.9408 24.569 14.585C24.569 20.3697 21.0619 21.6423 17.7203 22.0158C18.2589 22.4808 18.7384 23.3992 18.7384 24.8048C18.7384 26.8187 18.7205 28.4416 18.7205 28.9356C18.7205 29.3392 18.991 29.8081 19.7516 29.6595C25.7066 27.6645 30 22.0235 30 15.3727C30 7.05403 23.2834 0.312256 14.9995 0.312256Z" fill="white"/>
<path d="M22.8929 6.60059C23.6869 8.65123 23.1803 10.1648 23.026 10.5427C23.9879 11.5966 24.5686 12.9407 24.5686 14.5849C24.5686 20.3696 21.0615 21.6422 17.7198 22.0157C18.2584 22.4807 18.7379 23.3991 18.7379 24.8048C18.7379 26.8187 18.72 28.4416 18.72 28.9356C18.72 29.3391 18.9905 29.808 19.7511 29.6595C25.7066 27.6645 30 22.0235 30 15.3727C30 13.5848 29.6884 11.8709 29.1189 10.2799C27.0508 8.10252 24.749 6.65236 22.8929 6.60059Z" fill="white"/>
<path d="M11.6719 22.8219C11.8403 22.4823 12.046 22.2181 12.2623 22.0269C10.4371 21.8179 8.56258 21.3306 7.2392 19.986C8.25726 21.6805 9.915 22.4513 11.6719 22.8219Z" fill="white"/>
<path d="M0.780968 16.3879C0.780968 8.06919 7.49758 1.32742 15.7805 1.32742C20.3797 1.32742 24.4935 3.40758 27.2444 6.67951C24.5274 2.8279 20.0574 0.312256 14.9995 0.312256C6.71661 0.312256 0 7.05403 0 15.3727C0 19.0816 1.3379 22.475 3.55355 25.0981C1.81113 22.6385 0.780968 19.6356 0.780968 16.3879Z" fill="white"/>
<path d="M19.5189 25.8205C19.5189 24.4154 19.0394 23.4955 18.5008 23.0305C21.8424 22.658 25.35 21.3844 25.35 15.6002C25.35 13.956 24.7694 12.6123 23.8065 11.5584C23.9623 11.1776 24.4776 9.64666 23.6579 7.57425C23.6579 7.57425 23.5021 7.52634 23.1803 7.54473C23.5316 9.10763 23.1552 10.2254 23.026 10.5428C23.9879 11.5967 24.5686 12.9409 24.5686 14.5851C24.5686 20.3697 21.0615 21.6423 17.7198 22.0159C18.2584 22.4809 18.7379 23.3992 18.7379 24.8049C18.7379 26.8188 18.72 28.4417 18.72 28.9357C18.72 29.2909 18.9315 29.6959 19.5015 29.6862C19.5053 29.0054 19.5189 27.56 19.5189 25.8205Z" fill="white"/>
<path d="M7.10468 25.6449C7.41968 26.2933 8.47838 27.8465 11.2713 27.5194C11.2674 27.1778 11.2645 26.7951 11.2626 26.3746C9.1079 26.8449 7.8358 26.2904 7.10468 25.6449Z" fill="white"/>
<path d="M7.64322 23.6725C7.54693 23.5274 7.36645 23.2811 7.10468 23.0348C7.27451 23.2869 7.455 23.4983 7.64322 23.6725Z" fill="white"/>
</g>
<defs>
<clipPath id="clip0_541_34">
<rect width="30" height="30" fill="white"/>
</clipPath>
</defs>
</svg>
