<svg width="200" height="200" viewBox="0 0 200 200" fill="none" xmlns="http://www.w3.org/2000/svg">
<path d="M168.633 41.2016L156.127 181.292L99.9161 196.875L43.8596 181.313L31.3674 41.2016H168.633Z" fill="#E44D26"/>
<path d="M100 184.963L145.422 172.371L156.108 52.6574H100V184.963Z" fill="#F16529"/>
<path d="M75.6904 87.0262H100V69.842H56.9104L57.3214 74.4522L61.5452 121.807H100V104.623H77.261L75.6904 87.0262ZM79.5634 130.399H62.3131L64.7203 157.381L99.921 167.152L100 167.131V149.252L99.9247 149.272L80.7869 144.104L79.5634 130.399Z" fill="#EBEBEB"/>
<path d="M44.1384 3.125H52.8711V11.7528H60.8597V3.125H69.593V29.2522H60.8603V20.5033H52.8717V29.2522H44.1389V3.125H44.1384ZM81.0764 11.7894H73.3896V3.125H97.5023V11.7894H89.8107V29.2522H81.078V11.7894H81.0774H81.0764ZM101.329 3.125H110.435L116.036 12.3054L121.632 3.125H130.741V29.2522H122.044V16.3021L116.036 25.5918H115.885L109.873 16.3021V29.2522H101.329V3.125ZM135.087 3.125H143.823V20.6163H156.103V29.2522H135.087V3.125H135.087Z" fill="black"/>
<path d="M99.9408 121.807H121.101L119.106 144.094L99.9402 149.267V167.144L135.169 157.381L135.427 154.478L139.466 109.237L139.885 104.623H99.9408V121.807ZM99.9408 86.9842V87.0262H141.449L141.793 83.1639L142.576 74.4522L142.987 69.842H99.9408V86.9847V86.9842Z" fill="white"/>
</svg>
