<svg width="200" height="200" viewBox="0 0 200 200" fill="none" xmlns="http://www.w3.org/2000/svg">
<path d="M29.4638 40.9857L29.4861 42.7171C29.4984 43.6694 32.3464 75.1995 35.815 112.784L42.1215 181.119L70.4664 188.807C86.0561 193.035 99.1331 196.516 99.5263 196.543C99.9195 196.569 113.169 193.124 128.97 188.885C154.304 182.09 157.724 181.066 157.905 180.225C158.158 179.053 170.564 43.4751 170.551 42.0246L170.542 40.9857H100.002H29.4638Z" fill="white"/>
<path d="M70.6909 189.267L42.0939 181.523L41.7202 179.474C41.388 177.652 28.987 43.4735 28.987 41.7006C28.987 41.059 36.2276 40.9862 100.003 40.9862C167.321 40.9862 171.018 41.0282 171.013 41.7942C170.991 45.1024 158.155 181.058 157.839 181.329C157.44 181.671 102.091 196.609 100.241 196.874C99.7168 196.949 86.4192 193.526 70.6909 189.267ZM118.035 161.905C127.646 159.337 135.649 157.103 135.819 156.942C135.988 156.78 137.113 145.739 138.318 132.407C139.523 119.075 140.631 107.284 140.78 106.204L141.05 104.242H120.288H99.5261V112.784V121.326H110.736H121.945L121.722 122.365C121.6 122.936 121.123 127.846 120.663 133.276C120.175 139.03 119.598 143.371 119.278 143.68C118.976 143.973 114.408 145.327 109.128 146.691L99.5261 149.17V157.872C99.5261 163.812 99.69 166.574 100.042 166.574C100.326 166.574 108.423 164.473 118.035 161.905ZM140.777 93.507C140.462 91.2445 137.655 60.8992 137.655 59.755C137.655 59.06 136.005 58.9933 118.829 58.9933H100.003V67.9254V76.8576L108.463 77.1734C113.116 77.3472 118.012 77.6116 119.344 77.761L121.766 78.0327L122.354 85.0195C122.678 88.8623 123.063 92.7855 123.21 93.7378L123.479 95.4693H132.264H141.05L140.777 93.507Z" fill="#EAEBEC"/>
<path d="M70.4664 188.807L42.1215 181.119L35.815 112.784C32.3463 75.1997 29.4983 43.6699 29.486 42.7176L29.4636 40.9862H100.003H170.542L170.551 42.025C170.564 43.4756 158.158 179.054 157.905 180.226C157.723 181.067 154.304 182.09 128.97 188.886C113.169 193.124 99.9193 196.57 99.5261 196.543C99.1329 196.517 86.056 193.035 70.4664 188.807H70.4664ZM118.056 162.232C127.855 159.593 136.01 157.215 136.18 156.949C136.35 156.683 137.521 145.078 138.782 131.161C140.042 117.245 141.177 105.494 141.303 105.05C141.52 104.287 139.853 104.242 111.093 104.242H80.6528L81.9489 90.9675C82.6617 83.6665 83.2621 77.6741 83.283 77.651C83.304 77.6279 87.7716 77.4899 93.211 77.3442C102.13 77.1054 120.523 77.7947 121.138 78.3908C121.368 78.6135 122.88 92.9871 122.88 94.9492C122.88 95.9167 123.015 95.931 132.116 95.931H141.351L141.134 93.9687C141.014 92.8894 140.232 84.5265 139.395 75.3844L137.874 58.7624L102.257 58.6441C73.9214 58.5499 66.6388 58.6443 66.6357 59.1058C66.6332 59.4248 66.4259 61.452 66.1742 63.6105C65.5652 68.8338 60.9203 119.302 60.9203 120.696V121.787H91.2272H121.534L121.264 123.519C121.115 124.471 120.644 129.302 120.217 134.254C119.79 139.206 119.303 143.385 119.135 143.542C118.691 143.955 100.862 148.569 99.7497 148.559C99.2335 148.554 94.6289 147.441 89.5172 146.085L80.2232 143.621L79.8824 139.745C79.6949 137.614 79.4098 134.571 79.2487 132.984L78.9558 130.098H69.938H60.9203L60.9402 131.83C60.9776 135.068 63.145 156.879 63.4597 157.184C63.8238 157.536 98.4596 166.968 99.5261 167.005C99.9194 167.019 108.258 164.871 118.056 162.232H118.056Z" fill="#F0BE25"/>
<path d="M70.4664 188.807L42.1215 181.119L35.815 112.784C32.3463 75.1997 29.4983 43.6699 29.486 42.7176L29.4636 40.9862H100.003H170.542L170.551 42.025C170.564 43.4756 158.158 179.054 157.905 180.226C157.723 181.067 154.304 182.09 128.97 188.886C113.169 193.124 99.9193 196.57 99.5261 196.543C99.1329 196.517 86.056 193.035 70.4664 188.807H70.4664ZM123.326 178.522C135.794 175.189 146.23 172.228 146.517 171.942C146.962 171.497 157.731 57.1624 157.688 53.3372L157.673 52.0675H128.838H100.003V55.2995V58.5316H83.3212C70.2958 58.5316 66.6388 58.6581 66.6357 59.1087C66.6332 59.4262 66.4259 61.452 66.1742 63.6105C65.5652 68.8338 60.9203 119.302 60.9203 120.696V121.787H80.4615H100.003V135.177C100.003 145.586 99.8701 148.565 99.407 148.559C99.0793 148.554 94.6289 147.441 89.5172 146.085L80.2232 143.621L79.8824 139.745C79.6949 137.614 79.4098 134.571 79.2487 132.984L78.9558 130.098H69.938H60.9203L60.9402 131.83C60.9973 136.782 63.2089 156.998 63.7275 157.309C64.0428 157.497 72.3337 159.805 82.1517 162.437L100.003 167.222V175.902C100.003 180.676 100.15 184.582 100.329 184.582C100.509 184.582 110.857 181.855 123.326 178.522ZM81.8987 91.0916C82.5839 83.8589 83.2379 77.8593 83.352 77.7593C83.4661 77.6592 87.2592 77.4782 91.7811 77.357L100.003 77.1366V90.6893V104.242H90.3278H80.6528L81.8987 91.0916Z" fill="#E4A126"/>
<path d="M74.2655 24.595V20.2087H80.6998H87.1341V11.6668V3.125H91.662H96.1898V16.0532V28.9814H85.2277H74.2655V24.595ZM100.479 25.5185V22.0556H106.437C109.714 22.0556 112.395 21.9382 112.395 21.7948C112.395 21.6514 109.714 18.7192 106.437 15.2789L100.479 9.0238V6.0744V3.125H112.871H125.263V6.5737V10.0224L119.446 10.152L113.628 10.2817L119.684 16.5995L125.74 22.9173V25.9494V28.9814H113.11H100.479V25.5185Z" fill="#0E0E0F"/>
</svg>
