<svg width="31" height="30" viewBox="0 0 31 30" fill="none" xmlns="http://www.w3.org/2000/svg">
<path d="M27.7863 0H3.21374C1.715 0 0.5 1.215 0.5 2.71374V27.2862C0.5 28.785 1.715 30 3.21374 30H27.7862C29.285 30 30.5 28.785 30.5 27.2862V2.71374C30.5 1.215 29.285 0 27.7863 0ZM9.78327 25.904C9.78327 26.3402 9.42971 26.6937 8.99353 26.6937H5.63181C5.19563 26.6937 4.84207 26.3402 4.84207 25.904V11.8118C4.84207 11.3756 5.19563 11.022 5.63181 11.022H8.99353C9.42971 11.022 9.78327 11.3756 9.78327 11.8118V25.904ZM7.31267 9.69361C5.54887 9.69361 4.11901 8.26374 4.11901 6.49995C4.11901 4.73615 5.54887 3.30628 7.31267 3.30628C9.07647 3.30628 10.5063 4.73615 10.5063 6.49995C10.5063 8.26374 9.07654 9.69361 7.31267 9.69361ZM27.3516 25.9676C27.3516 26.3686 27.0264 26.6937 26.6254 26.6937H23.0181C22.6171 26.6937 22.2919 26.3686 22.2919 25.9676V19.3575C22.2919 18.3715 22.5812 15.0365 19.715 15.0365C17.4918 15.0365 17.0408 17.3192 16.9503 18.3436V25.9676C16.9503 26.3686 16.6252 26.6937 16.2242 26.6937H12.7352C12.3342 26.6937 12.0091 26.3686 12.0091 25.9676V11.7481C12.0091 11.3471 12.3342 11.022 12.7352 11.022H16.2242C16.6252 11.022 16.9503 11.3471 16.9503 11.7481V12.9776C17.7747 11.7404 18.9998 10.7855 21.6083 10.7855C27.3846 10.7855 27.3516 16.1821 27.3516 19.1472V25.9676Z" fill="white"/>
</svg>
