<svg width="31" height="26" viewBox="0 0 31 26" fill="none" xmlns="http://www.w3.org/2000/svg">
<path d="M1.07803 20.5003C2.34538 20.3456 3.63052 20.5123 4.89787 20.304C5.53446 20.2029 6.11758 19.9887 6.69472 19.7626C5.26679 18.8464 3.98153 17.7992 2.7857 16.5438C2.35732 16.0975 2.66666 15.3478 3.29145 15.3301C3.80317 15.3538 4.30294 15.3123 4.79077 15.211C3.54718 13.6343 2.58333 11.9386 1.83366 10.0346C1.63142 9.52293 2.22634 9.00537 2.70833 9.15997C2.98795 9.27304 3.27353 9.35041 3.56509 9.40986C2.67861 7.27978 2.49415 5.13192 2.98795 2.77571C3.10101 2.23426 3.81498 2.10341 4.17793 2.46039C7.02198 5.25667 10.6157 6.60139 14.4593 7.24395C14.1201 4.6141 15.9885 1.8177 18.4397 0.901355C20.4746 0.145721 23.2056 0.66341 24.5741 2.37692C25.4904 1.79978 26.7576 1.60935 27.7751 1.43086C28.3106 1.34155 28.8283 1.86521 28.5129 2.39471C28.144 3.01352 27.793 3.67387 27.4063 4.30463C28.1917 4.07252 29.0009 3.92973 29.81 3.82861C30.3931 3.75124 30.7441 4.64967 30.298 5.00665C29.3519 5.76228 28.4118 6.62501 27.4063 7.31522C27.3766 13.9969 25.425 19.6018 19.4573 23.4037C14.483 26.5811 5.23694 26.0456 0.911481 21.72H0.90551C0.715076 21.6724 0.613953 21.5296 0.578255 21.375C0.411707 21.1251 0.530614 20.8158 0.750775 20.6967C0.834114 20.5955 0.941208 20.5181 1.07803 20.5003Z" fill="white"/>
</svg>
