<svg width="31" height="30" viewBox="0 0 31 30" fill="none" xmlns="http://www.w3.org/2000/svg">
<g clip-path="url(#clip0_541_22)">
<path d="M4.90904 24.1866L5.33954 23.1821L4.72665 22.2772C3.26895 20.1251 2.5 17.6184 2.5 15C2.5 11.5238 3.84949 8.26561 6.30756 5.80759C8.76567 3.34953 12.0238 2 15.5 2C18.9762 2 22.2344 3.34954 24.6924 5.80756C27.1504 8.26568 28.5 11.5238 28.5 15C28.5 18.4762 27.1504 21.7343 24.6924 24.1924C22.2344 26.6505 18.9762 28 15.5 28C12.7899 28 10.213 27.1818 8.01472 25.6292L7.05827 24.9537L6.00107 25.4571L3.94496 26.4362L4.90904 24.1866Z" stroke="white" stroke-width="4"/>
<path d="M23.4917 20.0766L23.0421 17.6414C23.0049 17.4403 22.849 17.282 22.6485 17.2419L19.113 16.5348C18.9488 16.5021 18.7795 16.5534 18.6613 16.6716L17.2249 18.108C14.8049 17.0236 13.4617 15.6776 12.2798 13.1536L13.7116 11.7218C13.8298 11.6036 13.8811 11.4341 13.8483 11.2701L13.1412 7.73459C13.1011 7.53403 12.9428 7.37811 12.7417 7.34096L10.3065 6.89137C10.2398 6.87906 10.1711 6.88041 10.1049 6.89547C9.46189 7.0416 8.87519 7.36557 8.40825 7.83262C7.5996 8.64127 7.29058 9.82117 7.51458 11.2449C7.89064 13.6356 9.06198 16.9627 11.2229 19.1322L11.2523 19.1615C13.4204 21.321 16.7474 22.4924 19.1381 22.8685C19.4392 22.9159 19.7294 22.9394 20.0075 22.9394C21.0442 22.9394 21.9128 22.6124 22.5504 21.9748C23.0174 21.5078 23.3415 20.9211 23.4875 20.2781C23.5026 20.212 23.5041 20.1433 23.4917 20.0766Z" fill="white"/>
</g>
<defs>
<clipPath id="clip0_541_22">
<rect width="30" height="30" fill="white" transform="translate(0.5)"/>
</clipPath>
</defs>
</svg>
